<svg id="svg2" xmlns="http://www.w3.org/2000/svg" viewBox="0 0 415.44 145.16"><defs><style>.cls-1{fill:#fff;}.cls-2{fill:#ffb20c;}</style></defs><title>BDO_White</title><path id="path2996" class="cls-1" d="M72.45,27.61l.49,89,60.52-.34c6.37-.65,13.53-2.17,18.54-6.07a25.38,25.38,0,0,0,7.29-8.6v14.83l44.4-.32c35.9-2.41,48.06-27.19,47.88-43.43-.19-16.93-11.41-42.95-51.83-44.87l-40.45-.16V81.72c-2.39-5.29-7.53-10.43-18.58-13.5C149.09,63.44,152.86,56,152,48.16c-.84-7.45-4-17.58-23.44-20.23ZM117,39.35c11.14,2,13.36,8.31,13.39,13.08,0,5.19-2.9,12-13.39,12.5l-23.85-.08V39.51Zm63.8.08,13,.18c25.68-.31,34,17.88,33.88,32.56-.08,12.19-5,32.47-33.88,32.4l-13.33-.16ZM124,76.61c11.35,1.15,15.6,7.77,15.87,13.81.24,5.34-2.26,13.21-15.54,14.23H93.25V76.93Z"/><path id="path3006" class="cls-2" d="M290.42,25c-29,0-52.54,21.17-52.54,47.27s23.52,47.26,52.54,47.26S343,98.37,343,72.27,319.44,25,290.42,25Zm.29,10.66C307.45,35.66,321,51.91,321,72s-13.58,36.28-30.32,36.28S260.38,92,260.38,72,274,35.66,290.71,35.66Z"/></svg>